<?xml version="1.0" encoding="utf-8"?>
<!-- Generator: Adobe Illustrator 23.0.1, SVG Export Plug-In . SVG Version: 6.00 Build 0)  -->
<svg version="1.1" id="LOGO" xmlns="http://www.w3.org/2000/svg" xmlns:xlink="http://www.w3.org/1999/xlink" x="0px" y="0px"
	 viewBox="0 0 1920 1080" style="enable-background:new 0 0 1920 1080;" xml:space="preserve">
<style type="text/css">
	.st0{font-family:'PTMono-Regular';}
	.st1{font-size:1px;}
</style>
<g id="Font">
	<path d="M589,396.46h3.44v1.52H589V396.46z M609.11,367.12c5.69,0,9.5,1.49,11.43,4.47c1.34,2.26,2.01,4.47,2.01,6.64h-0.07
		c-3.89,0.27-6.56,0.41-7.99,0.41c0-1.54-0.59-2.84-1.76-3.89c-1.1-0.51-2.11-0.76-3.05-0.76h-1.43c-2.44,0-3.92,0.77-4.44,2.31
		c-0.12,0.45-0.18,0.8-0.18,1.05v0.61c0,2.18,1.41,3.76,4.23,4.74c0.24,0.18,2.2,0.91,5.88,2.19c1.96,0.74,3.78,1.66,5.45,2.75v0.06
		h-9v0.82h11.86v1.17h1.51v12.69h-2.94v6.52h-22.79v-6.52h-5.38v-4.38h3.05v-1.52h-3.05v-1.02h10.43v6.93h10.68v-10.44h-7.99v-3.42
		h-9.93v-0.82h4.8v-0.06c-4.21-2.28-6.31-5.51-6.31-9.68v-0.56c0-3.49,1.31-6.14,3.94-7.95
		C600.46,367.9,604.14,367.12,609.11,367.12z M622.04,387.7h3.62v0.82h-3.62V387.7z"/>
	<path d="M626.95,367.06h13.22c7.74,0,12.69,1.63,14.84,4.88c1.27,2.07,1.9,4.69,1.9,7.86c-0.07,0.57-0.11,1.14-0.11,1.72h7.35v2.02
		h-7.6v-0.06c0.12-1.21,0.18-1.86,0.18-1.96h-4.26v2.02h4.09v7.1h-8.46v2.46h-0.07c-6.52,0.04-10.21,0.06-11.07,0.06v3.68h-1.79
		v6.55h1v5.5h-8.03v-2.57h-1.11v-2.16c0-2.49-0.02-6.56-0.07-12.19h4.87v-2.13h-4.87V367.06z M636.95,374.16v11.9H640v-1.72h6.06
		c0.81-0.6,1.22-2.3,1.22-5.09c0-2.67-0.74-4.2-2.22-4.59c-0.55-0.33-1.8-0.5-3.76-0.5H636.95z"/>
	<path d="M721.55,367.09h17.56c5.88,0,9.68,1.69,11.4,5.06c0.74,1.73,1.11,3.72,1.11,5.96v1.75c0,4.05-1.09,7.14-3.26,9.27h-3.73
		v1.55h5.7v10h-3.37v1.55h5.09v5.9h-10.68v-9.44h-4.12v-6.11h-7.17v10.35h1.54v5.96h-9.89c-0.12,0-0.18-0.05-0.18-0.15v-16.78h4.41
		v-1.2h-4.41V367.09z M731.62,373.9v11.81h2.44c3.66,0,5.77-0.28,6.34-0.85c0.6-0.31,1.06-0.95,1.4-1.9h3.8v-1.49h-3.44v0.15
		c-0.19,0.9-0.34,1.34-0.43,1.34h-4.91v-1.49h5.16c0.12,0,0.18-0.04,0.18-0.12c0.05-1.21,0.07-1.89,0.07-2.05
		c0-2.61-0.55-4.21-1.65-4.79c-0.86-0.41-2.44-0.61-4.73-0.61H731.62z"/>
	<path d="M751.62,367h30.11v6.99h-9.96v28.97h4.52v0.85h-4.52v3.19h-2.69v1.11h1.9v0.79h-9.14c-0.12,0-0.18-0.05-0.18-0.15v-34.75
		h-10.04V367z M768.21,402.95v0.85h3.48v-0.85H768.21z"/>
	<path d="M776.74,396.46h3.44v1.52h-3.44V396.46z M796.84,367.12c5.69,0,9.5,1.49,11.43,4.47c1.34,2.26,2.01,4.47,2.01,6.64h-0.07
		c-3.89,0.27-6.56,0.41-7.99,0.41c0-1.54-0.59-2.84-1.76-3.89c-1.1-0.51-2.11-0.76-3.05-0.76h-1.43c-2.44,0-3.92,0.77-4.44,2.31
		c-0.12,0.45-0.18,0.8-0.18,1.05v0.61c0,2.18,1.41,3.76,4.23,4.74c0.24,0.18,2.2,0.91,5.88,2.19c1.96,0.74,3.78,1.66,5.45,2.75v0.06
		h-9v0.82h11.86v1.17h1.51v12.69h-2.94v6.52h-22.79v-6.52h-5.38v-4.38h3.05v-1.52h-3.05v-1.02h10.43v6.93h10.68v-10.44h-7.99v-3.42
		h-9.93v-0.82h4.8v-0.06c-4.21-2.28-6.31-5.51-6.31-9.68v-0.56c0-3.49,1.31-6.14,3.94-7.95C788.2,367.9,791.88,367.12,796.84,367.12
		z M809.78,387.7h3.62v0.82h-3.62V387.7z"/>
	<path d="M832.04,367h9.71l2.87,21.05h2.69c0.05-0.18,0.84-7.19,2.37-21.05h12.29c1.58,14.3,2.4,21.59,2.47,21.86h4.05
		c1.79-12.55,2.8-19.84,3.01-21.86h9.71l-4.05,22.22h-0.75v4.12h-7.35v1.05h5.81v6.26h-5.56v5.5h-1.51v2.4h-6.24V395h-4.05v-4.88
		c0-0.43-0.54-4.37-1.61-11.84h-0.18v0.06l-1.33,9.7h0.65v15h-5.99v5.85h-7.67v-5.85h-2.94v-13.83h-2.37L832.04,367z"/>
	<path d="M878.81,389.83h6.74v1.26h-6.74V389.83z M897.34,367.03h8.64c0.12,0.41,2.93,8.03,8.42,22.86h1.54v13.77h-3.55v1.08h3.55
		v2.95h-9.53v-8.48h-11.68v3.6h-4.73v6.08h-8.67v-0.41H882v-5.67h3.55v-11.72h2.94L897.34,367.03z M901.39,378.81v0.09
		c-0.74,3.31-2.17,8.55-4.3,15.73h8.03v-4.74h-0.68c-1.91-6.78-2.87-10.47-2.87-11.08H901.39z M906.41,408.19h11.54v0.7h-11.54
		V408.19z"/>
	<path d="M916.83,367h30.11v6.99h-9.96v28.97h4.52v0.85h-4.52v3.19h-2.69v1.11h1.9v0.79h-9.14c-0.12,0-0.18-0.05-0.18-0.15v-34.75
		h-10.04V367z M933.43,402.95v0.85h3.48v-0.85H933.43z"/>
	<path d="M964.75,367c7.17,0,11.68,1.82,13.55,5.47c0.53,0.9,0.79,1.49,0.79,1.78h-4.52v1.11h4.84v-0.06c0-0.19-0.11-0.55-0.32-1.05
		h8.28v1.11h-7.85v0.09c0.41,1.56,0.69,3.24,0.86,5.06c0,0.1-3.14,0.28-9.43,0.56V381c0-4.66-1.96-6.99-5.88-6.99h-1
		c-2.94,0-4.73,1.01-5.38,3.04c-0.53,1.71-0.79,3.97-0.79,6.75v5.7l-0.07,0.85h-3.26v1.34h3.26v10.14h13.83v-10.55h7.92v10.55h-4.41
		v6.49h-9.21v0.56h-7.17v-0.56h-7.28v-3.24h4.84v-1.4h-7.24v-4.79h-3.12v-5.9h1.65c-0.07-2.46-0.11-4.38-0.11-5.79
		c0-6.37,0.38-10.39,1.15-12.04c0.69-1.91,1.84-3.56,3.44-4.94C954.98,368.07,959.19,367,964.75,367z"/>
	<path d="M984.57,367h10.18v16.69h10.29V367h8.64v23.79h-3.55v1.05h3.55v17.04h-8.46c-0.12,0-0.18-0.05-0.18-0.15v-18.09h-10.29
		v18.09c0,0.1-0.06,0.15-0.18,0.15h-8.53v-21.84h-1.47V367z M1013.67,390.79h4.55v1.05h-4.55V390.79z"/>
</g>
<g>
	<path d="M711,395h4.01c1.3-3.01,1.99-6.29,1.99-9.67c0-6.51-2.53-12.62-7.12-17.21c-9.49-9.49-24.93-9.49-34.42,0
		c-0.6,0.6-1.17,1.23-1.69,1.88H679v2h-6.7c-4.72,7.2-5.21,16.38-1.5,24H674v1h-2.68c1.09,1.99,2.45,3.86,4.13,5.54
		c8.97,8.97,23.26,9.45,32.81,1.46H706v-1h3.37c0.17-0.16,0.34-0.3,0.51-0.46c1.94-1.94,3.5-4.15,4.67-6.54H711V395z M712.67,382
		H714v1h-1.21c0.1,0.92,0.17,1.85,0.15,2.79c-4.69-0.42-9.34,0.97-13.02,3.92l-4.38-4.38l12.84-12.84
		C710.62,375.23,712.09,378.49,712.67,382z M692.21,365.06c4.8-0.11,9.52,1.47,13.3,4.56l-12.84,12.84l-4.38-4.38
		C691.23,374.4,692.63,369.75,692.21,365.06z M688.18,365.56c0.28,3.45-0.71,6.86-2.78,9.63l-5.56-5.56
		C682.32,367.59,685.19,366.23,688.18,365.56z M676.96,372.49l5.56,5.56c-2.77,2.08-6.18,3.06-9.63,2.78
		C673.57,377.85,674.92,374.98,676.96,372.49z M672.4,384.87c0.55,0.05,1.1,0.08,1.65,0.08c4.12,0,8.12-1.4,11.37-4l4.38,4.38
		l-12.84,12.84C673.81,394.32,672.29,389.58,672.4,384.87z M693.13,405.6c-4.71,0.11-9.45-1.42-13.3-4.56l12.84-12.84l4.38,4.38
		C694.1,396.26,692.71,400.91,693.13,405.6z M697.16,405.1c-0.28-3.45,0.71-6.86,2.78-9.63l5.56,5.56
		C703.02,403.07,700.15,404.43,697.16,405.1z M708.38,398.17l-5.56-5.56c2.77-2.08,6.18-3.06,9.64-2.78
		C711.76,392.88,710.38,395.72,708.38,398.17z"/>
	<path d="M720,395h-4.99c-0.15,0.34-0.3,0.67-0.46,1H720V395z"/>
	<g id="Ball">
		<path d="M693.64,413.05l-6.94,6.94l-2.87-2.87l6.94-6.94L693.64,413.05z"/>
		<path d="M658.01,393.3l6.94-6.94l2.87,2.87l-6.94,6.94L658.01,393.3z"/>
		<path d="M669.73,399.66l-13.15,13.15l-2.87-2.87l13.16-13.15L669.73,399.66z"/>
		<path d="M681.21,411.13l-13.15,13.16l-2.87-2.87l13.15-13.15L681.21,411.13z"/>
		<path d="M659.95,415.18l2.85,2.89l-10.25,10.11l-2.85-2.89L659.95,415.18z"/>
		<path d="M676.02,404.84l-7.48,7.48l-2.87-2.87l7.48-7.48L676.02,404.84z"/>
		<path d="M662,370v2h10.3c0.45-0.69,0.93-1.35,1.46-2H662z"/>
	</g>
</g>
<g>
	<path d="M1025.62,355.38c-4.3-4.3-10.03-6.67-16.13-6.67c-0.27,0-0.49,0.22-0.49,0.49l0,4.58c0,0.13,0.05,0.25,0.14,0.35
		s0.22,0.14,0.35,0.14c4.61,0,8.95,1.79,12.2,5.04c3.25,3.25,5.04,7.59,5.04,12.2c0,0.13,0.05,0.25,0.14,0.35s0.22,0.14,0.35,0.14
		l4.58,0c0.13,0,0.25-0.05,0.35-0.14c0.09-0.09,0.14-0.22,0.14-0.35C1032.29,365.41,1029.92,359.68,1025.62,355.38z"/>
	<path d="M1019.55,361.45c-2.68-2.68-6.25-4.16-10.06-4.16c-0.13,0-0.25,0.05-0.35,0.14c-0.09,0.09-0.14,0.22-0.14,0.35v4.58
		c0,0.13,0.05,0.25,0.14,0.35s0.22,0.14,0.35,0.14c2.32,0,4.49,0.9,6.13,2.53s2.53,3.81,2.53,6.13c0,0.13,0.05,0.25,0.14,0.35
		c0.09,0.09,0.22,0.14,0.35,0.14h4.58c0.27,0,0.49-0.22,0.49-0.49C1023.71,367.71,1022.23,364.13,1019.55,361.45z"/>
</g>
<text transform="matrix(1 0 0 1 902.9189 394.5967)" class="st0 st1">ZLZ</text>
</svg>
